<svg viewBox="0 0 521 302" xmlns="http://www.w3.org/2000/svg" fill-rule="evenodd" clip-rule="evenodd" stroke-linejoin="round" stroke-miterlimit="1.414"><g transform="matrix(1.30046 0 0 1 3281.9 428.644)"><path fill="none" d="M-2523.65-428.644h400.156v301.719h-400.156z"/><clipPath id="a"><path d="M-2523.65-428.644h400.156v301.719h-400.156z"/></clipPath><g clip-path="url(#a)"><path fill="url(#b)" d="M0 0h400.156v296.769H0z" transform="matrix(1.00071 0 0 1.01668 -2523.94 -428.644)"/><g transform="matrix(.16813 0 0 .26197 -2494.176 -750.553)"><path d="M1189.38 1102.71c0-80.85-78.65-146.489-175.52-146.489-96.872 0-175.52 65.639-175.52 146.489v1515.6c0 80.85 78.648 146.5 175.52 146.5 96.87 0 175.52-65.65 175.52-146.5v-1515.6z" fill="#43d9ff"/><clipPath id="c"><path d="M1189.38 1102.71c0-80.85-78.65-146.489-175.52-146.489-96.872 0-175.52 65.639-175.52 146.489v1515.6c0 80.85 78.648 146.5 175.52 146.5 96.87 0 175.52-65.65 175.52-146.5v-1515.6z"/></clipPath><g clip-path="url(#c)"><path fill="#006c87" d="M675.805 1388.145l556.51-179.3 119.607 258.604-556.51 179.299z"/><path fill="#006c87" stroke="#fff" stroke-width="5.06" d="M1222.91 1007.76h658.859v367.422H1222.91z" transform="matrix(-.87455 -.19558 .23396 -.72874 2092.71 3518.8)"/></g></g><g transform="matrix(.04426 -.0971 .18581 .14324 -2709.273 -454.68)"><path d="M1189.38 1026.75c0-38.928-78.65-70.529-175.52-70.529-96.872 0-175.52 31.601-175.52 70.529v1667.53c0 38.92 78.648 70.53 175.52 70.53 96.87 0 175.52-31.61 175.52-70.53V1026.75z" fill="url(#d)"/><clipPath id="e"><path d="M1189.38 1026.75c0-38.928-78.65-70.529-175.52-70.529-96.872 0-175.52 31.601-175.52 70.529v1667.53c0 38.92 78.648 70.53 175.52 70.53 96.87 0 175.52-31.61 175.52-70.53V1026.75z"/></clipPath><g clip-path="url(#e)"><path d="M311.484 2499.06L2709.7 1115.07" fill="none" stroke="#df76c7" stroke-width="16.6" stroke-linecap="round" stroke-miterlimit="1.5" transform="matrix(.95873 -.57199 1.66361 .33084 -3438.42 2126.19)"/></g><path d="M1189.38 1026.75c0-38.928-78.65-70.529-175.52-70.529-96.872 0-175.52 31.601-175.52 70.529v1667.53c0 38.92 78.648 70.53 175.52 70.53 96.87 0 175.52-31.61 175.52-70.53V1026.75z" fill="none" stroke="#000" stroke-width=".92" stroke-linecap="round" stroke-miterlimit="1.5"/></g><g transform="matrix(-.04431 -.09705 .18602 -.14365 -2619.986 78.84)"><path d="M1189.38 1026.63c0-38.858-78.65-70.409-175.52-70.409-96.872 0-175.52 31.551-175.52 70.409v1667.76c0 38.87 78.648 70.42 175.52 70.42 96.87 0 175.52-31.55 175.52-70.42V1026.63z" fill="url(#f)"/><clipPath id="g"><path d="M1189.38 1026.63c0-38.858-78.65-70.409-175.52-70.409-96.872 0-175.52 31.551-175.52 70.409v1667.76c0 38.87 78.648 70.42 175.52 70.42 96.87 0 175.52-31.55 175.52-70.42V1026.63z"/></clipPath><g clip-path="url(#g)"><path d="M311.484 2499.06L2709.7 1115.07" fill="none" stroke="#df76c7" stroke-width="16.6" stroke-linecap="round" stroke-miterlimit="1.5" transform="matrix(.95873 -.57199 1.66361 .33084 -3438.42 2126.19)"/></g><path d="M1189.38 1026.63c0-38.858-78.65-70.409-175.52-70.409-96.872 0-175.52 31.551-175.52 70.409v1667.76c0 38.87 78.648 70.42 175.52 70.42 96.87 0 175.52-31.55 175.52-70.42V1026.63z" fill="none" stroke="#000" stroke-width=".92" stroke-linecap="round" stroke-miterlimit="1.5"/></g><path d="M-2323.672-86.135l-107.286-210.208h214.573l-107.287 210.208z" fill="#c3525a"/><path d="M-2323.95-86.133l-54.487-210.208h108.972l-54.486 210.208z" fill="#ff5749" fill-opacity=".498"/><path d="M-2216.483-296.342h-214.475l53.62-107.848h107.236l53.62 107.848z" fill="#e04551"/><path fill="#ff4e4b" fill-opacity=".498" d="M-2378.158-404.192h108.973v107.85h-108.973z"/><path d="M-2323.672-404.192l54.487 107.85h-108.973l54.486-107.85z" fill="#ff857b"/><g><path d="M2681.89 2116.84c0-55.66-48.79-100.84-108.88-100.84H412.019c-60.088 0-108.872 45.18-108.872 100.84v201.67c0 55.65 48.784 100.83 108.872 100.83H2573.01c60.09 0 108.88-45.18 108.88-100.83v-201.67z" fill="#7190cb" stroke="#a8b3c7" stroke-width="26.17" stroke-linecap="round" stroke-miterlimit="1.5" transform="matrix(.11738 0 0 .16482 -2498.914 -610.675)"/><text x="549.07" y="2133.74" font-family="'AnonymousPro-Regular','Anonymous Pro',monospace" font-size="12" fill="#f2f4f7" transform="matrix(2.37608 0 0 3.3476 -3751.947 -7378.518)">Local Ski Report</text></g></g></g><defs><linearGradient id="b" x2="1" gradientUnits="userSpaceOnUse" gradientTransform="matrix(400.156 0 0 296.769 0 148.384)"><stop offset="0" stop-color="#33cf89"/><stop offset=".56" stop-color="#2b9ec2"/><stop offset="1" stop-color="#288ada"/></linearGradient><radialGradient id="d" cx="0" cy="0" r="1" gradientUnits="userSpaceOnUse" gradientTransform="matrix(175.52 0 0 904.293 1013.86 1860.51)"><stop offset="0" stop-color="#fff"/><stop offset="1" stop-color="#00b3e0"/></radialGradient><radialGradient id="f" cx="0" cy="0" r="1" gradientUnits="userSpaceOnUse" gradientTransform="matrix(175.52 0 0 904.293 1013.86 1860.51)"><stop offset="0" stop-color="#fff"/><stop offset="1" stop-color="#00b3e0"/></radialGradient></defs></svg>