<svg viewBox="0 0 69 69" xmlns="http://www.w3.org/2000/svg" fill-rule="evenodd" clip-rule="evenodd" stroke-linejoin="round" stroke-miterlimit="1.414"><path d="M68.105 5.784A5.787 5.787 0 0 0 62.321 0H5.784A5.787 5.787 0 0 0 0 5.784v56.537a5.787 5.787 0 0 0 5.784 5.784h56.537a5.787 5.787 0 0 0 5.784-5.784V5.784z" fill="#2c353e"/><path d="M54.72 18.564l.178.024.175.04.171.055.165.071.158.085.15.099.14.111.13.124.118.136.105.145.092.154.078.162.063.168.048.173.032.176.016.179v.179l-.016.179-.032.177-.048.173-.063.168-.078.161-.092.154-.105.146-.118.135-.13.124-.14.112-.15.098-.158.086-.165.07-.171.055-.175.04-.178.025-.179.008H13.563l-.179-.008-.178-.025-.175-.04-.17-.055-.165-.07-.158-.086-.15-.098-.14-.112-.13-.124-.118-.135-.106-.146-.092-.154-.078-.161-.063-.168-.047-.173-.032-.177-.017-.179v-.179l.017-.179.032-.176.047-.173.063-.168.078-.162.092-.154.106-.145.118-.136.13-.124.14-.111.15-.099.158-.085.165-.071.17-.055.175-.04.178-.024.179-.008h40.978l.179.008zM54.72 31.78l.178.024.175.04.171.056.165.07.158.085.15.099.14.112.13.124.118.135.105.145.092.154.078.162.063.168.048.173.032.177.016.178v.18l-.016.178-.032.177-.048.173-.063.168-.078.162-.092.154-.105.145-.118.135-.13.124-.14.112-.15.099-.158.085-.165.07-.171.056-.175.04-.178.024-.179.008H13.563l-.179-.008-.178-.024-.175-.04-.17-.056-.165-.07-.158-.085-.15-.099-.14-.112-.13-.124-.118-.135-.106-.145-.092-.154-.078-.162-.063-.168-.047-.173-.032-.177-.017-.178v-.18l.017-.178.032-.177.047-.173.063-.168.078-.162.092-.154.106-.145.118-.135.13-.124.14-.112.15-.099.158-.085.165-.07.17-.056.175-.04.178-.024.179-.008h40.978l.179.008zM54.72 44.997l.178.024.175.04.171.055.165.071.158.085.15.098.14.112.13.124.118.135.105.146.092.154.078.161.063.168.048.173.032.177.016.179v.179l-.016.179-.032.177-.048.173-.063.168-.078.161-.092.154-.105.145-.118.136-.13.124-.14.112-.15.098-.158.085-.165.071-.171.055-.175.04-.178.024-.179.008H13.563l-.179-.008-.178-.024-.175-.04-.17-.055-.165-.071-.158-.085-.15-.098-.14-.112-.13-.124-.118-.136-.106-.145-.092-.154-.078-.161-.063-.168-.047-.173-.032-.177-.017-.179v-.179l.017-.179.032-.177.047-.173.063-.168.078-.161.092-.154.106-.146.118-.135.13-.124.14-.112.15-.098.158-.085.165-.071.17-.055.175-.04.178-.024.179-.009h40.978l.179.009z" fill="#ec6f60"/></svg>