<svg viewBox="0 0 153 155" xmlns="http://www.w3.org/2000/svg" fill-rule="evenodd" clip-rule="evenodd" stroke-linecap="round" stroke-linejoin="round" stroke-miterlimit="1.5"><circle cx="446.648" cy="670.628" r="68.093" fill="#ebeced" stroke="#ec6f60" stroke-width="20.38" transform="matrix(.97654 0 0 .9859 -359.676 -584.056)"/><path d="M106.438 100.296H46.552a4.275 4.275 0 0 1-4.277-4.278V50.391a4.275 4.275 0 0 1 4.277-4.277h59.886a4.274 4.274 0 0 1 4.277 4.277v45.627a4.274 4.274 0 0 1-4.277 4.278zm-4.278-8.555V58.747L78.58 82.33a2.76 2.76 0 0 1-2.1.855 2.766 2.766 0 0 1-2.1-.855L50.83 58.775v32.966h51.33zm-4.103-37.072H54.905l21.576 21.615L98.057 54.67z" fill="#ec6f60"/></svg>