<?xml version="1.0" encoding="UTF-8" standalone="no"?><!DOCTYPE svg PUBLIC "-//W3C//DTD SVG 1.1//EN" "http://www.w3.org/Graphics/SVG/1.1/DTD/svg11.dtd"><svg width="100%" height="100%" viewBox="0 0 401 187" version="1.1" xmlns="http://www.w3.org/2000/svg" xmlns:xlink="http://www.w3.org/1999/xlink" xml:space="preserve" style="fill-rule:evenodd;clip-rule:evenodd;stroke-linejoin:round;stroke-miterlimit:1.41421;"><path d="M200.058,186.517l-200.058,-186.517l400.116,0l-200.058,186.517Z" style="fill:#2c353e;"/><clipPath id="_clip1"><rect id="nd-logo" x="221.087" y="20.612" width="80.037" height="57.756"/></clipPath><g clip-path="url(#_clip1)"><path d="M300.987,51.574c-1.73,22.594 -19.321,24.565 -28.881,26.751c0,0 -15.707,-0.076 -15.707,0c0,0.135 -18.947,-25.264 -19.59,-25.354l0,25.354l-15.722,0l0,-26.751l51.183,0l0,11.189c0,0 11.968,-3.036 13.756,-11.189l14.961,0Zm-79.9,-2.074l0,-28.888l15.722,0l19.59,27.464l0,-27.464l15.707,0c0,0 29.112,5.495 29.018,27.464c-0.003,0.483 -0.011,0.958 -0.026,1.424l-14.849,0l0,-0.002c-0.009,-9.72 -13.979,-13.291 -13.979,-13.291l0,13.293l-51.183,0Z" style="fill:#fff;"/></g></svg>