<?xml version="1.0" encoding="UTF-8" standalone="no"?><!DOCTYPE svg PUBLIC "-//W3C//DTD SVG 1.1//EN" "http://www.w3.org/Graphics/SVG/1.1/DTD/svg11.dtd"><svg width="100%" height="100%" viewBox="0 0 69 69" version="1.1" xmlns="http://www.w3.org/2000/svg" xmlns:xlink="http://www.w3.org/1999/xlink" xml:space="preserve" style="fill-rule:evenodd;clip-rule:evenodd;stroke-linejoin:round;stroke-miterlimit:1.41421;"><g><path d="M68.105,5.784c0,-3.192 -2.592,-5.784 -5.784,-5.784l-56.537,0c-3.192,0 -5.784,2.592 -5.784,5.784l0,56.537c0,3.192 2.592,5.784 5.784,5.784l56.537,0c3.192,0 5.784,-2.592 5.784,-5.784l0,-56.537Z" style="fill:#2c353e;"/><path d="M34.332,12.049l0.28,0.005l0.278,0.009l0.278,0.013l0.277,0.015l0.276,0.02l0.275,0.022l0.274,0.027l0.273,0.029l0.273,0.033l0.271,0.036l0.27,0.04l0.269,0.043l0.268,0.046l0.267,0.049l0.266,0.053l0.264,0.056l0.264,0.059l0.262,0.062l0.261,0.066l0.26,0.069l0.258,0.071l0.258,0.075l0.256,0.078l0.254,0.081l0.253,0.084l0.252,0.087l0.251,0.09l0.249,0.093l0.247,0.096l0.246,0.099l0.245,0.102l0.243,0.104l0.241,0.108l0.24,0.11l0.238,0.113l0.237,0.116l0.235,0.119l0.233,0.121l0.232,0.124l0.23,0.127l0.229,0.13l0.226,0.132l0.225,0.135l0.223,0.137l0.221,0.14l0.22,0.143l0.217,0.145l0.216,0.148l0.214,0.15l0.212,0.153l0.21,0.155l0.208,0.157l0.206,0.16l0.204,0.163l0.202,0.164l0.2,0.168l0.198,0.169l0.196,0.172l0.194,0.174l0.192,0.176l0.189,0.179l0.188,0.181l0.185,0.183l0.183,0.185l0.181,0.188l0.179,0.19l0.176,0.191l0.174,0.194l0.172,0.196l0.17,0.198l0.167,0.2l0.165,0.202l0.162,0.204l0.16,0.206l0.158,0.209l0.155,0.21l0.153,0.212l0.15,0.213l0.147,0.216l0.146,0.218l0.142,0.219l0.14,0.221l0.138,0.224l0.135,0.224l0.132,0.227l0.129,0.228l0.127,0.23l0.124,0.232l0.122,0.233l0.118,0.235l0.116,0.237l0.113,0.238l0.111,0.24l0.107,0.242l0.105,0.243l0.101,0.244l0.099,0.246l0.096,0.248l0.093,0.249l0.09,0.25l0.087,0.252l0.084,0.253l0.081,0.255l0.078,0.256l0.075,0.257l0.072,0.258l0.068,0.26l0.066,0.261l0.062,0.262l0.059,0.264l0.056,0.265l0.053,0.265l0.049,0.267l0.047,0.268l0.043,0.269l0.039,0.271l0.036,0.271l0.033,0.272l0.03,0.273l0.026,0.274l0.023,0.276l0.019,0.275l0.016,0.277l0.012,0.278l0.009,0.278l0.005,0.28l0.002,0.28l-0.002,0.28l-0.005,0.28l-0.009,0.278l-0.012,0.278l-0.016,0.277l-0.019,0.275l-0.023,0.276l-0.026,0.274l-0.03,0.273l-0.033,0.272l-0.036,0.271l-0.039,0.271l-0.043,0.269l-0.047,0.268l-0.049,0.267l-0.053,0.265l-0.056,0.265l-0.059,0.264l-0.062,0.262l-0.066,0.261l-0.068,0.26l-0.072,0.258l-0.075,0.258l-0.078,0.255l-0.081,0.255l-0.084,0.253l-0.087,0.252l-0.09,0.25l-0.093,0.249l-0.096,0.248l-0.099,0.246l-0.101,0.244l-0.105,0.243l-0.107,0.242l-0.111,0.24l-0.113,0.238l-0.116,0.237l-0.118,0.235l-0.122,0.233l-0.124,0.232l-0.127,0.23l-0.129,0.228l-0.132,0.227l-0.135,0.225l-0.138,0.223l-0.14,0.221l-0.142,0.219l-0.146,0.218l-0.147,0.216l-0.15,0.214l-0.153,0.211l-0.155,0.211l-0.158,0.208l-0.16,0.206l-0.162,0.204l-0.165,0.202l-0.167,0.2l-0.17,0.198l-0.172,0.196l-0.174,0.194l-0.176,0.191l-0.179,0.19l-0.181,0.188l-0.183,0.185l-0.185,0.183l-0.188,0.181l-0.189,0.179l-0.192,0.176l-0.194,0.174l-0.196,0.172l-0.198,0.169l-0.2,0.168l-0.202,0.164l-0.204,0.163l-0.206,0.16l-0.208,0.157l-0.21,0.156l-0.212,0.152l-0.214,0.151l-0.216,0.147l-0.217,0.145l-0.22,0.143l-0.221,0.14l-0.223,0.137l-0.225,0.135l-0.226,0.132l-0.229,0.13l-0.23,0.127l-0.232,0.124l-0.233,0.121l-0.235,0.119l-0.237,0.116l-0.238,0.113l-0.24,0.11l-0.241,0.108l-0.243,0.104l-0.245,0.102l-0.246,0.099l-0.247,0.096l-0.249,0.093l-0.251,0.09l-0.252,0.087l-0.253,0.084l-0.254,0.081l-0.256,0.078l-0.258,0.075l-0.258,0.071l-0.26,0.069l-0.261,0.066l-0.262,0.062l-0.264,0.059l-0.264,0.056l-0.266,0.053l-0.267,0.049l-0.268,0.046l-0.269,0.043l-0.27,0.04l-0.271,0.036l-0.273,0.033l-0.273,0.03l-0.274,0.026l-0.275,0.022l-0.276,0.02l-0.277,0.015l-0.278,0.013l-0.278,0.009l-0.28,0.005l-0.28,0.002l-0.28,-0.002l-0.279,-0.005l-0.279,-0.009l-0.277,-0.013l-0.277,-0.015l-0.276,-0.02l-0.275,-0.022l-0.275,-0.026l-0.273,-0.03l-0.272,-0.033l-0.271,-0.036l-0.27,-0.04l-0.269,-0.043l-0.268,-0.046l-0.267,-0.049l-0.266,-0.053l-0.265,-0.056l-0.263,-0.059l-0.263,-0.062l-0.261,-0.066l-0.259,-0.069l-0.259,-0.071l-0.257,-0.075l-0.256,-0.078l-0.255,-0.081l-0.253,-0.084l-0.252,-0.087l-0.25,-0.09l-0.249,-0.093l-0.247,-0.096l-0.246,-0.099l-0.245,-0.102l-0.243,-0.104l-0.241,-0.108l-0.24,-0.11l-0.239,-0.113l-0.236,-0.116l-0.235,-0.119l-0.234,-0.121l-0.231,-0.124l-0.23,-0.127l-0.229,-0.13l-0.226,-0.132l-0.225,-0.135l-0.223,-0.137l-0.222,-0.14l-0.219,-0.143l-0.218,-0.145l-0.215,-0.148l-0.214,-0.15l-0.212,-0.152l-0.21,-0.156l-0.208,-0.157l-0.206,-0.16l-0.205,-0.163l-0.202,-0.164l-0.2,-0.167l-0.198,-0.17l-0.195,-0.172l-0.194,-0.174l-0.192,-0.176l-0.19,-0.179l-0.187,-0.181l-0.186,-0.183l-0.183,-0.185l-0.181,-0.188l-0.178,-0.19l-0.177,-0.191l-0.174,-0.194l-0.172,-0.196l-0.169,-0.198l-0.167,-0.2l-0.165,-0.202l-0.162,-0.204l-0.161,-0.207l-0.157,-0.207l-0.155,-0.21l-0.153,-0.212l-0.15,-0.214l-0.148,-0.216l-0.145,-0.218l-0.143,-0.219l-0.14,-0.221l-0.137,-0.223l-0.135,-0.225l-0.132,-0.227l-0.13,-0.228l-0.126,-0.23l-0.125,-0.232l-0.121,-0.233l-0.119,-0.235l-0.116,-0.237l-0.113,-0.238l-0.11,-0.24l-0.107,-0.242l-0.105,-0.243l-0.102,-0.244l-0.099,-0.246l-0.096,-0.248l-0.093,-0.249l-0.09,-0.25l-0.087,-0.252l-0.084,-0.253l-0.081,-0.255l-0.077,-0.255l-0.075,-0.258l-0.072,-0.258l-0.069,-0.26l-0.065,-0.261l-0.063,-0.262l-0.059,-0.264l-0.056,-0.264l-0.052,-0.266l-0.05,-0.267l-0.046,-0.268l-0.043,-0.269l-0.039,-0.271l-0.037,-0.271l-0.033,-0.272l-0.029,-0.273l-0.026,-0.274l-0.023,-0.275l-0.019,-0.276l-0.016,-0.277l-0.012,-0.278l-0.009,-0.278l-0.006,-0.28l-0.001,-0.28l0.001,-0.28l0.006,-0.28l0.009,-0.278l0.012,-0.278l0.016,-0.277l0.019,-0.276l0.023,-0.275l0.026,-0.274l0.029,-0.273l0.033,-0.272l0.037,-0.271l0.039,-0.271l0.043,-0.269l0.046,-0.268l0.05,-0.267l0.052,-0.266l0.056,-0.264l0.059,-0.264l0.063,-0.262l0.065,-0.261l0.069,-0.26l0.072,-0.258l0.075,-0.257l0.077,-0.256l0.081,-0.255l0.084,-0.253l0.087,-0.252l0.09,-0.25l0.093,-0.249l0.096,-0.248l0.099,-0.246l0.102,-0.244l0.105,-0.243l0.107,-0.242l0.11,-0.24l0.113,-0.238l0.116,-0.237l0.119,-0.235l0.121,-0.233l0.125,-0.232l0.126,-0.23l0.13,-0.228l0.132,-0.227l0.135,-0.225l0.137,-0.223l0.14,-0.221l0.143,-0.219l0.145,-0.218l0.148,-0.216l0.15,-0.213l0.153,-0.213l0.155,-0.209l0.157,-0.208l0.161,-0.207l0.162,-0.204l0.165,-0.202l0.167,-0.2l0.169,-0.198l0.172,-0.196l0.174,-0.194l0.177,-0.191l0.178,-0.19l0.181,-0.188l0.183,-0.185l0.186,-0.183l0.187,-0.181l0.19,-0.179l0.192,-0.176l0.193,-0.174l0.196,-0.172l0.198,-0.169l0.2,-0.167l0.202,-0.165l0.205,-0.163l0.206,-0.16l0.208,-0.157l0.21,-0.156l0.212,-0.152l0.214,-0.15l0.215,-0.148l0.218,-0.145l0.219,-0.143l0.222,-0.14l0.223,-0.137l0.225,-0.135l0.226,-0.132l0.229,-0.13l0.23,-0.127l0.231,-0.124l0.234,-0.121l0.235,-0.119l0.236,-0.116l0.239,-0.113l0.24,-0.11l0.241,-0.108l0.243,-0.104l0.245,-0.102l0.246,-0.099l0.247,-0.096l0.249,-0.093l0.251,-0.09l0.251,-0.087l0.253,-0.084l0.255,-0.081l0.256,-0.078l0.257,-0.075l0.259,-0.071l0.259,-0.069l0.261,-0.066l0.263,-0.062l0.263,-0.059l0.265,-0.056l0.266,-0.053l0.267,-0.049l0.268,-0.046l0.269,-0.043l0.27,-0.04l0.271,-0.036l0.272,-0.033l0.273,-0.029l0.275,-0.027l0.275,-0.022l0.276,-0.02l0.277,-0.015l0.277,-0.013l0.279,-0.009l0.279,-0.005l0.28,-0.002l0.28,0.002Zm-0.509,4l-0.229,0.004l-0.228,0.007l-0.227,0.011l-0.226,0.012l-0.225,0.016l-0.225,0.019l-0.224,0.021l-0.223,0.024l-0.222,0.027l-0.221,0.03l-0.22,0.032l-0.22,0.035l-0.218,0.038l-0.218,0.04l-0.216,0.043l-0.216,0.045l-0.215,0.049l-0.213,0.05l-0.213,0.054l-0.212,0.056l-0.21,0.058l-0.21,0.061l-0.208,0.063l-0.207,0.066l-0.207,0.069l-0.205,0.071l-0.204,0.073l-0.202,0.076l-0.202,0.078l-0.2,0.08l-0.2,0.083l-0.198,0.086l-0.197,0.087l-0.195,0.09l-0.194,0.092l-0.193,0.095l-0.192,0.097l-0.19,0.099l-0.189,0.101l-0.188,0.103l-0.186,0.106l-0.185,0.108l-0.183,0.11l-0.182,0.112l-0.181,0.114l-0.179,0.117l-0.178,0.118l-0.176,0.121l-0.174,0.122l-0.174,0.125l-0.171,0.127l-0.17,0.128l-0.168,0.131l-0.167,0.133l-0.165,0.134l-0.164,0.137l-0.161,0.138l-0.161,0.141l-0.158,0.142l-0.157,0.144l-0.154,0.146l-0.154,0.148l-0.151,0.15l-0.15,0.151l-0.147,0.153l-0.146,0.155l-0.145,0.157l-0.142,0.158l-0.14,0.16l-0.139,0.162l-0.136,0.164l-0.135,0.165l-0.133,0.166l-0.13,0.169l-0.129,0.17l-0.127,0.171l-0.124,0.173l-0.123,0.175l-0.121,0.176l-0.118,0.177l-0.117,0.18l-0.114,0.18l-0.112,0.182l-0.11,0.184l-0.108,0.185l-0.106,0.186l-0.103,0.187l-0.101,0.189l-0.099,0.191l-0.097,0.191l-0.094,0.193l-0.093,0.195l-0.09,0.195l-0.087,0.197l-0.085,0.198l-0.083,0.199l-0.081,0.201l-0.078,0.201l-0.076,0.203l-0.073,0.204l-0.071,0.205l-0.068,0.206l-0.066,0.208l-0.064,0.208l-0.061,0.21l-0.058,0.21l-0.056,0.212l-0.053,0.213l-0.051,0.213l-0.048,0.215l-0.046,0.215l-0.043,0.217l-0.04,0.217l-0.038,0.219l-0.035,0.219l-0.032,0.221l-0.03,0.221l-0.027,0.222l-0.024,0.223l-0.021,0.224l-0.018,0.224l-0.016,0.226l-0.013,0.226l-0.01,0.227l-0.007,0.228l-0.005,0.229l-0.001,0.229l0.001,0.229l0.005,0.229l0.007,0.228l0.01,0.227l0.013,0.226l0.016,0.226l0.018,0.224l0.021,0.224l0.024,0.223l0.027,0.222l0.03,0.221l0.032,0.221l0.035,0.219l0.038,0.219l0.04,0.217l0.043,0.217l0.046,0.215l0.048,0.215l0.051,0.214l0.053,0.212l0.056,0.212l0.058,0.21l0.061,0.21l0.064,0.208l0.066,0.208l0.068,0.206l0.071,0.205l0.073,0.204l0.076,0.203l0.078,0.201l0.081,0.201l0.083,0.199l0.085,0.198l0.087,0.197l0.09,0.195l0.093,0.195l0.094,0.193l0.097,0.191l0.099,0.191l0.101,0.189l0.104,0.187l0.105,0.186l0.108,0.185l0.11,0.184l0.112,0.182l0.114,0.18l0.117,0.18l0.118,0.177l0.121,0.176l0.123,0.175l0.124,0.173l0.127,0.171l0.129,0.17l0.13,0.169l0.133,0.166l0.135,0.165l0.136,0.164l0.139,0.162l0.14,0.16l0.142,0.158l0.145,0.157l0.146,0.155l0.147,0.153l0.15,0.151l0.151,0.15l0.154,0.148l0.154,0.146l0.157,0.144l0.158,0.142l0.161,0.141l0.161,0.138l0.164,0.137l0.165,0.134l0.167,0.133l0.168,0.131l0.17,0.128l0.171,0.127l0.174,0.125l0.174,0.122l0.176,0.121l0.178,0.118l0.179,0.117l0.181,0.114l0.181,0.112l0.184,0.11l0.185,0.108l0.186,0.106l0.188,0.103l0.189,0.102l0.19,0.099l0.192,0.096l0.193,0.095l0.194,0.092l0.195,0.09l0.197,0.087l0.198,0.086l0.2,0.083l0.2,0.08l0.202,0.078l0.202,0.076l0.204,0.073l0.206,0.071l0.206,0.069l0.207,0.066l0.208,0.063l0.21,0.061l0.21,0.058l0.212,0.056l0.213,0.054l0.213,0.051l0.215,0.048l0.216,0.045l0.216,0.043l0.218,0.041l0.218,0.037l0.22,0.035l0.22,0.032l0.221,0.03l0.222,0.027l0.223,0.024l0.224,0.021l0.225,0.019l0.225,0.016l0.226,0.012l0.227,0.011l0.228,0.007l0.229,0.004l0.229,0.002l0.23,-0.002l0.228,-0.004l0.228,-0.007l0.227,-0.011l0.227,-0.012l0.225,-0.016l0.225,-0.019l0.224,-0.021l0.222,-0.024l0.223,-0.027l0.221,-0.03l0.22,-0.032l0.219,-0.035l0.219,-0.037l0.217,-0.041l0.217,-0.043l0.216,-0.045l0.214,-0.048l0.214,-0.051l0.213,-0.054l0.211,-0.056l0.211,-0.058l0.209,-0.061l0.209,-0.063l0.207,-0.066l0.206,-0.069l0.205,-0.071l0.204,-0.073l0.203,-0.076l0.202,-0.078l0.2,-0.08l0.199,-0.083l0.198,-0.086l0.197,-0.087l0.196,-0.09l0.194,-0.092l0.193,-0.095l0.192,-0.096l0.19,-0.099l0.189,-0.102l0.188,-0.103l0.186,-0.106l0.185,-0.108l0.183,-0.11l0.182,-0.112l0.181,-0.114l0.179,-0.116l0.178,-0.119l0.176,-0.121l0.174,-0.122l0.173,-0.125l0.172,-0.127l0.17,-0.128l0.168,-0.131l0.167,-0.133l0.165,-0.134l0.163,-0.137l0.162,-0.138l0.16,-0.141l0.159,-0.142l0.156,-0.144l0.155,-0.146l0.153,-0.148l0.152,-0.15l0.149,-0.151l0.148,-0.153l0.146,-0.155l0.144,-0.157l0.143,-0.158l0.14,-0.16l0.138,-0.162l0.137,-0.163l0.135,-0.166l0.132,-0.166l0.131,-0.169l0.129,-0.17l0.126,-0.171l0.125,-0.173l0.123,-0.175l0.12,-0.176l0.119,-0.178l0.116,-0.179l0.114,-0.18l0.113,-0.182l0.11,-0.184l0.107,-0.185l0.106,-0.186l0.104,-0.187l0.101,-0.189l0.099,-0.191l0.097,-0.191l0.094,-0.193l0.092,-0.195l0.09,-0.195l0.088,-0.197l0.085,-0.198l0.083,-0.199l0.08,-0.201l0.079,-0.201l0.075,-0.203l0.074,-0.204l0.071,-0.205l0.068,-0.206l0.066,-0.207l0.063,-0.209l0.061,-0.21l0.059,-0.21l0.056,-0.212l0.053,-0.212l0.051,-0.214l0.048,-0.215l0.046,-0.215l0.043,-0.217l0.04,-0.217l0.037,-0.219l0.035,-0.219l0.033,-0.221l0.029,-0.221l0.027,-0.222l0.024,-0.223l0.022,-0.223l0.018,-0.225l0.016,-0.226l0.013,-0.226l0.01,-0.227l0.007,-0.228l0.004,-0.228l0.002,-0.23l-0.002,-0.23l-0.004,-0.228l-0.007,-0.228l-0.01,-0.227l-0.013,-0.226l-0.016,-0.226l-0.018,-0.225l-0.022,-0.223l-0.024,-0.223l-0.027,-0.222l-0.029,-0.221l-0.033,-0.221l-0.035,-0.219l-0.037,-0.219l-0.04,-0.217l-0.043,-0.217l-0.046,-0.215l-0.048,-0.215l-0.051,-0.213l-0.053,-0.213l-0.056,-0.212l-0.059,-0.21l-0.061,-0.21l-0.063,-0.208l-0.066,-0.208l-0.068,-0.206l-0.071,-0.205l-0.074,-0.204l-0.075,-0.203l-0.079,-0.201l-0.08,-0.201l-0.083,-0.199l-0.085,-0.198l-0.088,-0.197l-0.09,-0.195l-0.092,-0.195l-0.094,-0.193l-0.097,-0.191l-0.099,-0.191l-0.101,-0.189l-0.104,-0.187l-0.106,-0.186l-0.107,-0.185l-0.11,-0.184l-0.113,-0.182l-0.114,-0.18l-0.116,-0.179l-0.119,-0.178l-0.12,-0.176l-0.123,-0.175l-0.125,-0.173l-0.126,-0.171l-0.129,-0.17l-0.131,-0.169l-0.132,-0.166l-0.135,-0.166l-0.137,-0.163l-0.138,-0.162l-0.14,-0.16l-0.143,-0.158l-0.144,-0.157l-0.146,-0.155l-0.148,-0.153l-0.149,-0.151l-0.152,-0.15l-0.153,-0.148l-0.155,-0.146l-0.156,-0.144l-0.159,-0.142l-0.16,-0.141l-0.162,-0.138l-0.163,-0.137l-0.165,-0.134l-0.167,-0.133l-0.168,-0.131l-0.17,-0.128l-0.172,-0.127l-0.173,-0.125l-0.174,-0.122l-0.176,-0.121l-0.178,-0.118l-0.179,-0.117l-0.181,-0.114l-0.182,-0.112l-0.183,-0.11l-0.185,-0.108l-0.186,-0.106l-0.188,-0.103l-0.189,-0.101l-0.19,-0.099l-0.192,-0.097l-0.193,-0.095l-0.194,-0.092l-0.196,-0.09l-0.197,-0.087l-0.198,-0.086l-0.199,-0.083l-0.2,-0.08l-0.202,-0.078l-0.203,-0.076l-0.204,-0.073l-0.205,-0.071l-0.206,-0.069l-0.207,-0.066l-0.209,-0.063l-0.209,-0.061l-0.211,-0.058l-0.211,-0.056l-0.213,-0.054l-0.214,-0.05l-0.214,-0.049l-0.216,-0.045l-0.217,-0.043l-0.217,-0.04l-0.219,-0.038l-0.219,-0.035l-0.22,-0.032l-0.221,-0.03l-0.223,-0.027l-0.223,-0.024l-0.223,-0.021l-0.225,-0.019l-0.225,-0.016l-0.227,-0.012l-0.227,-0.011l-0.228,-0.007l-0.228,-0.004l-0.23,-0.002l-0.229,0.002Z" style="fill:#ec6f60;"/></g></svg>