<?xml version="1.0" encoding="UTF-8" standalone="no"?><!DOCTYPE svg PUBLIC "-//W3C//DTD SVG 1.1//EN" "http://www.w3.org/Graphics/SVG/1.1/DTD/svg11.dtd"><svg width="100%" height="100%" viewBox="0 0 69 69" version="1.1" xmlns="http://www.w3.org/2000/svg" xmlns:xlink="http://www.w3.org/1999/xlink" xml:space="preserve" style="fill-rule:evenodd;clip-rule:evenodd;stroke-linejoin:round;stroke-miterlimit:1.41421;"><g><path d="M68.105,5.784c0,-3.192 -2.592,-5.784 -5.784,-5.784l-56.537,0c-3.192,0 -5.784,2.592 -5.784,5.784l0,56.537c0,3.192 2.592,5.784 5.784,5.784l56.537,0c3.192,0 5.784,-2.592 5.784,-5.784l0,-56.537Z" style="fill:#2c353e;"/><path d="M54.72,18.564l0.178,0.024l0.175,0.04l0.171,0.055l0.165,0.071l0.158,0.085l0.15,0.099l0.14,0.111l0.13,0.124l0.118,0.136l0.105,0.145l0.092,0.154l0.078,0.162l0.063,0.168l0.048,0.173l0.032,0.176l0.016,0.179l0,0.179l-0.016,0.179l-0.032,0.177l-0.048,0.173l-0.063,0.168l-0.078,0.161l-0.092,0.154l-0.105,0.146l-0.118,0.135l-0.13,0.124l-0.14,0.112l-0.15,0.098l-0.158,0.086l-0.165,0.07l-0.171,0.055l-0.175,0.04l-0.178,0.025l-0.179,0.008l-40.978,0l-0.179,-0.008l-0.178,-0.025l-0.175,-0.04l-0.17,-0.055l-0.165,-0.07l-0.158,-0.086l-0.15,-0.098l-0.14,-0.112l-0.13,-0.124l-0.118,-0.135l-0.106,-0.146l-0.092,-0.154l-0.078,-0.161l-0.063,-0.168l-0.047,-0.173l-0.032,-0.177l-0.017,-0.179l0,-0.179l0.017,-0.179l0.032,-0.176l0.047,-0.173l0.063,-0.168l0.078,-0.162l0.092,-0.154l0.106,-0.145l0.118,-0.136l0.13,-0.124l0.14,-0.111l0.15,-0.099l0.158,-0.085l0.165,-0.071l0.17,-0.055l0.175,-0.04l0.178,-0.024l0.179,-0.008l40.978,0l0.179,0.008Z" style="fill:#ec6f60;"/><path d="M54.72,31.78l0.178,0.024l0.175,0.04l0.171,0.056l0.165,0.07l0.158,0.085l0.15,0.099l0.14,0.112l0.13,0.124l0.118,0.135l0.105,0.145l0.092,0.154l0.078,0.162l0.063,0.168l0.048,0.173l0.032,0.177l0.016,0.178l0,0.18l-0.016,0.178l-0.032,0.177l-0.048,0.173l-0.063,0.168l-0.078,0.162l-0.092,0.154l-0.105,0.145l-0.118,0.135l-0.13,0.124l-0.14,0.112l-0.15,0.099l-0.158,0.085l-0.165,0.07l-0.171,0.056l-0.175,0.04l-0.178,0.024l-0.179,0.008l-40.978,0l-0.179,-0.008l-0.178,-0.024l-0.175,-0.04l-0.17,-0.056l-0.165,-0.07l-0.158,-0.085l-0.15,-0.099l-0.14,-0.112l-0.13,-0.124l-0.118,-0.135l-0.106,-0.145l-0.092,-0.154l-0.078,-0.162l-0.063,-0.168l-0.047,-0.173l-0.032,-0.177l-0.017,-0.178l0,-0.18l0.017,-0.178l0.032,-0.177l0.047,-0.173l0.063,-0.168l0.078,-0.162l0.092,-0.154l0.106,-0.145l0.118,-0.135l0.13,-0.124l0.14,-0.112l0.15,-0.099l0.158,-0.085l0.165,-0.07l0.17,-0.056l0.175,-0.04l0.178,-0.024l0.179,-0.008l40.978,0l0.179,0.008Z" style="fill:#ec6f60;"/><path d="M54.72,44.997l0.178,0.024l0.175,0.04l0.171,0.055l0.165,0.071l0.158,0.085l0.15,0.098l0.14,0.112l0.13,0.124l0.118,0.135l0.105,0.146l0.092,0.154l0.078,0.161l0.063,0.168l0.048,0.173l0.032,0.177l0.016,0.179l0,0.179l-0.016,0.179l-0.032,0.177l-0.048,0.173l-0.063,0.168l-0.078,0.161l-0.092,0.154l-0.105,0.145l-0.118,0.136l-0.13,0.124l-0.14,0.112l-0.15,0.098l-0.158,0.085l-0.165,0.071l-0.171,0.055l-0.175,0.04l-0.178,0.024l-0.179,0.008l-40.978,0l-0.179,-0.008l-0.178,-0.024l-0.175,-0.04l-0.17,-0.055l-0.165,-0.071l-0.158,-0.085l-0.15,-0.098l-0.14,-0.112l-0.13,-0.124l-0.118,-0.136l-0.106,-0.145l-0.092,-0.154l-0.078,-0.161l-0.063,-0.168l-0.047,-0.173l-0.032,-0.177l-0.017,-0.179l0,-0.179l0.017,-0.179l0.032,-0.177l0.047,-0.173l0.063,-0.168l0.078,-0.161l0.092,-0.154l0.106,-0.146l0.118,-0.135l0.13,-0.124l0.14,-0.112l0.15,-0.098l0.158,-0.085l0.165,-0.071l0.17,-0.055l0.175,-0.04l0.178,-0.024l0.179,-0.009l40.978,0l0.179,0.009Z" style="fill:#ec6f60;"/></g></svg>