<svg viewBox="0 0 69 69" xmlns="http://www.w3.org/2000/svg" fill-rule="evenodd" clip-rule="evenodd" stroke-linejoin="round" stroke-miterlimit="1.414"><path d="M68.105 5.784A5.787 5.787 0 0 0 62.321 0H5.784A5.787 5.787 0 0 0 0 5.784v56.537a5.787 5.787 0 0 0 5.784 5.784h56.537a5.787 5.787 0 0 0 5.784-5.784V5.784z" fill="#2c353e"/><path d="M34.332 12.049l.28.005.278.009.278.013.277.015.276.02.275.022.274.027.273.029.273.033.271.036.27.04.269.043.268.046.267.049.266.053.264.056.264.059.262.062.261.066.26.069.258.071.258.075.256.078.254.081.253.084.252.087.251.09.249.093.247.096.246.099.245.102.243.104.241.108.24.11.238.113.237.116.235.119.233.121.232.124.23.127.229.13.226.132.225.135.223.137.221.14.22.143.217.145.216.148.214.15.212.153.21.155.208.157.206.16.204.163.202.164.2.168.198.169.196.172.194.174.192.176.189.179.188.181.185.183.183.185.181.188.179.19.176.191.174.194.172.196.17.198.167.2.165.202.162.204.16.206.158.209.155.21.153.212.15.213.147.216.146.218.142.219.14.221.138.224.135.224.132.227.129.228.127.23.124.232.122.233.118.235.116.237.113.238.111.24.107.242.105.243.101.244.099.246.096.248.093.249.09.25.087.252.084.253.081.255.078.256.075.257.072.258.068.26.066.261.062.262.059.264.056.265.053.265.049.267.047.268.043.269.039.271.036.271.033.272.03.273.026.274.023.276.019.275.016.277.012.278.009.278.005.28.002.28-.002.28-.005.28-.009.278-.012.278-.016.277-.019.275-.023.276-.026.274-.03.273-.033.272-.036.271-.039.271-.043.269-.047.268-.049.267-.053.265-.056.265-.059.264-.062.262-.066.261-.068.26-.072.258-.075.258-.078.255-.081.255-.084.253-.087.252-.09.25-.093.249-.096.248-.099.246-.101.244-.105.243-.107.242-.111.24-.113.238-.116.237-.118.235-.122.233-.124.232-.127.23-.129.228-.132.227-.135.225-.138.223-.14.221-.142.219-.146.218-.147.216-.15.214-.153.211-.155.211-.158.208-.16.206-.162.204-.165.202-.167.2-.17.198-.172.196-.174.194-.176.191-.179.19-.181.188-.183.185-.185.183-.188.181-.189.179-.192.176-.194.174-.196.172-.198.169-.2.168-.202.164-.204.163-.206.16-.208.157-.21.156-.212.152-.214.151-.216.147-.217.145-.22.143-.221.14-.223.137-.225.135-.226.132-.229.13-.23.127-.232.124-.233.121-.235.119-.237.116-.238.113-.24.11-.241.108-.243.104-.245.102-.246.099-.247.096-.249.093-.251.09-.252.087-.253.084-.254.081-.256.078-.258.075-.258.071-.26.069-.261.066-.262.062-.264.059-.264.056-.266.053-.267.049-.268.046-.269.043-.27.04-.271.036-.273.033-.273.03-.274.026-.275.022-.276.02-.277.015-.278.013-.278.009-.28.005-.28.002-.28-.002-.279-.005-.279-.009-.277-.013-.277-.015-.276-.02-.275-.022-.275-.026-.273-.03-.272-.033-.271-.036-.27-.04-.269-.043-.268-.046-.267-.049-.266-.053-.265-.056-.263-.059-.263-.062-.261-.066-.259-.069-.259-.071-.257-.075-.256-.078-.255-.081-.253-.084-.252-.087-.25-.09-.249-.093-.247-.096-.246-.099-.245-.102-.243-.104-.241-.108-.24-.11-.239-.113-.236-.116-.235-.119-.234-.121-.231-.124-.23-.127-.229-.13-.226-.132-.225-.135-.223-.137-.222-.14-.219-.143-.218-.145-.215-.148-.214-.15-.212-.152-.21-.156-.208-.157-.206-.16-.205-.163-.202-.164-.2-.167-.198-.17-.195-.172-.194-.174-.192-.176-.19-.179-.187-.181-.186-.183-.183-.185-.181-.188-.178-.19-.177-.191-.174-.194-.172-.196-.169-.198-.167-.2-.165-.202-.162-.204-.161-.207-.157-.207-.155-.21-.153-.212-.15-.214-.148-.216-.145-.218-.143-.219-.14-.221-.137-.223-.135-.225-.132-.227-.13-.228-.126-.23-.125-.232-.121-.233-.119-.235-.116-.237-.113-.238-.11-.24-.107-.242-.105-.243-.102-.244-.099-.246-.096-.248-.093-.249-.09-.25-.087-.252-.084-.253-.081-.255-.077-.255-.075-.258-.072-.258-.069-.26-.065-.261-.063-.262-.059-.264-.056-.264-.052-.266-.05-.267-.046-.268-.043-.269-.039-.271-.037-.271-.033-.272-.029-.273-.026-.274-.023-.275-.019-.276-.016-.277-.012-.278-.009-.278-.006-.28-.001-.28.001-.28.006-.28.009-.278.012-.278.016-.277.019-.276.023-.275.026-.274.029-.273.033-.272.037-.271.039-.271.043-.269.046-.268.05-.267.052-.266.056-.264.059-.264.063-.262.065-.261.069-.26.072-.258.075-.257.077-.256.081-.255.084-.253.087-.252.09-.25.093-.249.096-.248.099-.246.102-.244.105-.243.107-.242.11-.24.113-.238.116-.237.119-.235.121-.233.125-.232.126-.23.13-.228.132-.227.135-.225.137-.223.14-.221.143-.219.145-.218.148-.216.15-.213.153-.213.155-.209.157-.208.161-.207.162-.204.165-.202.167-.2.169-.198.172-.196.174-.194.177-.191.178-.19.181-.188.183-.185.186-.183.187-.181.19-.179.192-.176.193-.174.196-.172.198-.169.2-.167.202-.165.205-.163.206-.16.208-.157.21-.156.212-.152.214-.15.215-.148.218-.145.219-.143.222-.14.223-.137.225-.135.226-.132.229-.13.23-.127.231-.124.234-.121.235-.119.236-.116.239-.113.24-.11.241-.108.243-.104.245-.102.246-.099.247-.096.249-.093.251-.09.251-.087.253-.084.255-.081.256-.078.257-.075.259-.071.259-.069.261-.066.263-.062.263-.059.265-.056.266-.053.267-.049.268-.046.269-.043.27-.04.271-.036.272-.033.273-.029.275-.027.275-.022.276-.02.277-.015.277-.013.279-.009.279-.005.28-.002.28.002zm-.509 4l-.229.004-.228.007-.227.011-.226.012-.225.016-.225.019-.224.021-.223.024-.222.027-.221.03-.22.032-.22.035-.218.038-.218.04-.216.043-.216.045-.215.049-.213.05-.213.054-.212.056-.21.058-.21.061-.208.063-.207.066-.207.069-.205.071-.204.073-.202.076-.202.078-.2.08-.2.083-.198.086-.197.087-.195.09-.194.092-.193.095-.192.097-.19.099-.189.101-.188.103-.186.106-.185.108-.183.11-.182.112-.181.114-.179.117-.178.118-.176.121-.174.122-.174.125-.171.127-.17.128-.168.131-.167.133-.165.134-.164.137-.161.138-.161.141-.158.142-.157.144-.154.146-.154.148-.151.15-.15.151-.147.153-.146.155-.145.157-.142.158-.14.16-.139.162-.136.164-.135.165-.133.166-.13.169-.129.17-.127.171-.124.173-.123.175-.121.176-.118.177-.117.18-.114.18-.112.182-.11.184-.108.185-.106.186-.103.187-.101.189-.099.191-.097.191-.094.193-.093.195-.09.195-.087.197-.085.198-.083.199-.081.201-.078.201-.076.203-.073.204-.071.205-.068.206-.066.208-.064.208-.061.21-.058.21-.056.212-.053.213-.051.213-.048.215-.046.215-.043.217-.04.217-.038.219-.035.219-.032.221-.03.221-.027.222-.024.223-.021.224-.018.224-.016.226-.013.226-.01.227-.007.228-.005.229-.001.229.001.229.005.229.007.228.01.227.013.226.016.226.018.224.021.224.024.223.027.222.03.221.032.221.035.219.038.219.04.217.043.217.046.215.048.215.051.214.053.212.056.212.058.21.061.21.064.208.066.208.068.206.071.205.073.204.076.203.078.201.081.201.083.199.085.198.087.197.09.195.093.195.094.193.097.191.099.191.101.189.104.187.105.186.108.185.11.184.112.182.114.18.117.18.118.177.121.176.123.175.124.173.127.171.129.17.13.169.133.166.135.165.136.164.139.162.14.16.142.158.145.157.146.155.147.153.15.151.151.15.154.148.154.146.157.144.158.142.161.141.161.138.164.137.165.134.167.133.168.131.17.128.171.127.174.125.174.122.176.121.178.118.179.117.181.114.181.112.184.11.185.108.186.106.188.103.189.102.19.099.192.096.193.095.194.092.195.09.197.087.198.086.2.083.2.08.202.078.202.076.204.073.206.071.206.069.207.066.208.063.21.061.21.058.212.056.213.054.213.051.215.048.216.045.216.043.218.041.218.037.22.035.22.032.221.03.222.027.223.024.224.021.225.019.225.016.226.012.227.011.228.007.229.004.229.002.23-.002.228-.004.228-.007.227-.011.227-.012.225-.016.225-.019.224-.021.222-.024.223-.027.221-.03.22-.032.219-.035.219-.037.217-.041.217-.043.216-.045.214-.048.214-.051.213-.054.211-.056.211-.058.209-.061.209-.063.207-.066.206-.069.205-.071.204-.073.203-.076.202-.078.2-.08.199-.083.198-.086.197-.087.196-.09.194-.092.193-.095.192-.096.19-.099.189-.102.188-.103.186-.106.185-.108.183-.11.182-.112.181-.114.179-.116.178-.119.176-.121.174-.122.173-.125.172-.127.17-.128.168-.131.167-.133.165-.134.163-.137.162-.138.16-.141.159-.142.156-.144.155-.146.153-.148.152-.15.149-.151.148-.153.146-.155.144-.157.143-.158.14-.16.138-.162.137-.163.135-.166.132-.166.131-.169.129-.17.126-.171.125-.173.123-.175.12-.176.119-.178.116-.179.114-.18.113-.182.11-.184.107-.185.106-.186.104-.187.101-.189.099-.191.097-.191.094-.193.092-.195.09-.195.088-.197.085-.198.083-.199.08-.201.079-.201.075-.203.074-.204.071-.205.068-.206.066-.207.063-.209.061-.21.059-.21.056-.212.053-.212.051-.214.048-.215.046-.215.043-.217.04-.217.037-.219.035-.219.033-.221.029-.221.027-.222.024-.223.022-.223.018-.225.016-.226.013-.226.01-.227.007-.228.004-.228.002-.23-.002-.23-.004-.228-.007-.228-.01-.227-.013-.226-.016-.226-.018-.225-.022-.223-.024-.223-.027-.222-.029-.221-.033-.221-.035-.219-.037-.219-.04-.217-.043-.217-.046-.215-.048-.215-.051-.213-.053-.213-.056-.212-.059-.21-.061-.21-.063-.208-.066-.208-.068-.206-.071-.205-.074-.204-.075-.203-.079-.201-.08-.201-.083-.199-.085-.198-.088-.197-.09-.195-.092-.195-.094-.193-.097-.191-.099-.191-.101-.189-.104-.187-.106-.186-.107-.185-.11-.184-.113-.182-.114-.18-.116-.179-.119-.178-.12-.176-.123-.175-.125-.173-.126-.171-.129-.17-.131-.169-.132-.166-.135-.166-.137-.163-.138-.162-.14-.16-.143-.158-.144-.157-.146-.155-.148-.153-.149-.151-.152-.15-.153-.148-.155-.146-.156-.144-.159-.142-.16-.141-.162-.138-.163-.137-.165-.134-.167-.133-.168-.131-.17-.128-.172-.127-.173-.125-.174-.122-.176-.121-.178-.118-.179-.117-.181-.114-.182-.112-.183-.11-.185-.108-.186-.106-.188-.103-.189-.101-.19-.099-.192-.097-.193-.095-.194-.092-.196-.09-.197-.087-.198-.086-.199-.083-.2-.08-.202-.078-.203-.076-.204-.073-.205-.071-.206-.069-.207-.066-.209-.063-.209-.061-.211-.058-.211-.056-.213-.054-.214-.05-.214-.049-.216-.045-.217-.043-.217-.04-.219-.038-.219-.035-.22-.032-.221-.03-.223-.027-.223-.024-.223-.021-.225-.019-.225-.016-.227-.012-.227-.011-.228-.007-.228-.004-.23-.002-.229.002z" fill="#ec6f60"/></svg>