<svg viewBox="0 0 153 155" xmlns="http://www.w3.org/2000/svg" fill-rule="evenodd" clip-rule="evenodd" stroke-linecap="round" stroke-linejoin="round" stroke-miterlimit="1.5"><circle cx="446.648" cy="670.628" r="68.093" fill="#288ada" stroke="#fafafa" stroke-width="20.38" transform="matrix(.97654 0 0 .9859 -359.676 -584.038)"/><path d="M76.358 58.84a7.955 7.955 0 0 0-7.953-7.952H48.106c-4.39 0-7.954 3.562-7.954 7.952v15.913c0 4.39 3.564 7.951 7.954 7.951h20.299a7.955 7.955 0 0 0 7.953-7.95V58.84z" fill="#f3f3f3"/><path d="M507.358 2705.95c0-5.94-4.817-10.75-10.75-10.75h-33.013c-5.933 0-10.75 4.81-10.75 10.75v21.5c0 5.93 4.817 10.75 10.75 10.75h33.013c5.933 0 10.75-4.82 10.75-10.75v-21.5z" fill="#f3f3f3" stroke="#288ada" stroke-width="1.08" stroke-linejoin="miter" stroke-miterlimit="2.5" transform="matrix(1.33333 0 0 1.1307 -563.64 -2988.703)"/></svg>