<?xml version="1.0" encoding="UTF-8" standalone="no"?>
<!DOCTYPE svg PUBLIC "-//W3C//DTD SVG 1.1//EN" "http://www.w3.org/Graphics/SVG/1.1/DTD/svg11.dtd">
<svg width="100%" height="100%" viewBox="0 0 153 155" version="1.1" xmlns="http://www.w3.org/2000/svg" xmlns:xlink="http://www.w3.org/1999/xlink" xml:space="preserve" style="fill-rule:evenodd;clip-rule:evenodd;stroke-linecap:round;stroke-linejoin:round;stroke-miterlimit:1.5;">
    <g transform="matrix(1.33333,0,0,1.33333,-563.505,-3378.42)">
        <g transform="matrix(1,0,0,1.00958,2.33631,1366.16)">
            <g transform="matrix(0.732405,0,0,0.732405,150.536,722.708)">
                <g id="skills-icon">
                    <circle cx="446.648" cy="670.628" r="68.093" style="fill:rgb(40,138,218);stroke:rgb(250,250,250);stroke-width:20.38px;"/>
                </g>
            </g>
        </g>
        <g transform="matrix(1,0,0,1.00958,2.33631,1366.16)">
            <g id="folder-icon" transform="matrix(1,0,0,1,1.558,-2.17144)">
                <g transform="matrix(1,0,0,0.789698,-3.99569,-923.948)">
                    <path d="M480,2692.69C480,2688.56 477.327,2685.21 474.035,2685.21L458.811,2685.21C455.518,2685.21 452.845,2688.56 452.845,2692.69L452.845,2707.66C452.845,2711.79 455.518,2715.14 458.811,2715.14L474.035,2715.14C477.327,2715.14 480,2711.79 480,2707.66L480,2692.69Z" style="fill:rgb(243,243,243);"/>
                </g>
                <g transform="matrix(1,0,0,0.839979,-3.99569,-1061.51)">
                    <path d="M507.358,2705.95C507.358,2700.01 502.541,2695.2 496.608,2695.2L463.595,2695.2C457.662,2695.2 452.845,2700.01 452.845,2705.95L452.845,2727.45C452.845,2733.38 457.662,2738.2 463.595,2738.2L496.608,2738.2C502.541,2738.2 507.358,2733.38 507.358,2727.45L507.358,2705.95Z" style="fill:rgb(243,243,243);stroke:rgb(40,138,218);stroke-width:1.08px;stroke-linejoin:miter;stroke-miterlimit:2.5;"/>
                </g>
            </g>
        </g>
    </g>
</svg>
