<svg viewBox="0 0 153 155" xmlns="http://www.w3.org/2000/svg" fill-rule="evenodd" clip-rule="evenodd" stroke-linecap="round" stroke-linejoin="round" stroke-miterlimit="1.5"><circle cx="446.648" cy="670.628" r="68.093" fill="#fff" stroke="#33cf89" stroke-width="20.38" transform="matrix(.97654 0 0 .9859 -359.676 -584.041)"/><path d="M87.573 67.013s-2.523-.422-5.52-2.17c-2.999-1.747-5.22-4.09-5.22-4.09s-25.778 40.905-28.788 50.34c-1.685 5.291 7.045 10.38 10.74 6.26 6.59-7.348 28.788-50.34 28.788-50.34z"/><circle cx="476.932" cy="1243.41" r="3.068" transform="matrix(.99893 .58226 -.57673 1.0085 295.178 -1418.775)"/><path d="M90.62 49.712c11.47 6.686 12.724-7.654 13.807-4.285a14.919 14.919 0 0 1-1.244 12.004c-4.057 7.094-13.057 9.528-20.084 5.432-7.027-4.096-9.437-13.18-5.38-20.275a14.681 14.681 0 0 1 9.92-7.144c3.365-.67-8.489 7.583 2.98 14.268z"/></svg>