<?xml version="1.0" encoding="UTF-8" standalone="no"?>
<!DOCTYPE svg PUBLIC "-//W3C//DTD SVG 1.1//EN" "http://www.w3.org/Graphics/SVG/1.1/DTD/svg11.dtd">
<svg width="100%" height="100%" viewBox="0 0 153 155" version="1.1" xmlns="http://www.w3.org/2000/svg" xmlns:xlink="http://www.w3.org/1999/xlink" xml:space="preserve" style="fill-rule:evenodd;clip-rule:evenodd;stroke-linecap:round;stroke-linejoin:round;stroke-miterlimit:1.5;">
    <g transform="matrix(1.33333,0,0,1.33333,-563.505,-2177.23)">
        <g transform="matrix(1,0,0,1.00958,2.33631,465.263)">
            <g transform="matrix(0.732405,0,0,0.732405,150.536,722.708)">
                <g id="skills-icon">
                    <circle cx="446.648" cy="670.628" r="68.093" style="fill:white;stroke:rgb(51,207,137);stroke-width:20.38px;"/>
                </g>
            </g>
        </g>
        <g transform="matrix(1,0,0,1.00958,2.33631,465.263)">
            <g id="wrench-icon" transform="matrix(1.02889,0.594029,-0.594029,1.02889,708.504,-322.949)">
                <g transform="matrix(0.721186,0,0,0.978919,133.114,23.6583)">
                    <path d="M482.944,1210.29C482.944,1210.29 480.849,1210.87 477.819,1210.87C474.788,1210.87 472.089,1210.29 472.089,1210.29C472.089,1210.29 470.28,1241.23 472.089,1247.42C473.105,1250.89 481.929,1250.89 482.944,1247.42C484.754,1241.23 482.944,1210.29 482.944,1210.29Z"/>
                </g>
                <g transform="matrix(0.728163,0,0,0.728163,130.38,338.322)">
                    <circle cx="476.932" cy="1243.41" r="3.068"/>
                </g>
                <g transform="matrix(0.823536,0,0,0.823536,82.768,216.515)">
                    <path d="M479.512,1191.92C489.665,1191.92 485.053,1182.01 487.051,1183.81C489.341,1185.87 490.782,1188.86 490.782,1192.18C490.782,1198.4 485.732,1203.45 479.512,1203.45C473.292,1203.45 468.243,1198.4 468.243,1192.18C468.243,1188.79 469.743,1185.75 472.116,1183.68C474.096,1181.95 469.36,1191.92 479.512,1191.92Z"/>
                </g>
            </g>
        </g>
    </g>
</svg>
